<?xml version="1.0" encoding="utf-8"?>
<!-- Svg Vector Icons : http://www.onlinewebfonts.com/icon -->
<!DOCTYPE svg PUBLIC "-//W3C//DTD SVG 1.1//EN" "http://www.w3.org/Graphics/SVG/1.1/DTD/svg11.dtd">
<svg version="1.1" xmlns="http://www.w3.org/2000/svg" xmlns:xlink="http://www.w3.org/1999/xlink" x="0px" y="0px" viewBox="0 0 1000 1000" enable-background="new 0 0 1000 1000" xml:space="preserve">
<metadata> Svg Vector Icons : http://www.onlinewebfonts.com/icon </metadata>
<g><path d="M444.8,51.9C391.9,34,330.3,54.9,284.7,63C445.1-50.4,776,38.3,871.8,140.7c166.9,178.2,109.9,545.5-64.1,698.3c-65.4,57.4-192,141.5-298.9,149.6c-148.2,11.4-279.2-48.1-357.6-133C94,793.7,30.8,672.7,28.5,573C22.7,319.8,217.9,96.3,444.8,51.9L444.8,51.9z M615.6,76.7c52.5,28.6,141.7,47.4,153.3,100.8c-73.2-33.5-114-76.3-189-90.2C330.5,41.1,112,281.8,89.3,511.8c-13.6,137.8,60,262.8,138,329C296,899.2,418,946.3,544.1,925.7c71.4-11.6,172.8-76.8,235-132.7C991.1,602.9,980.5,83.6,615.6,76.7C609.6,60.6,615.7,67.2,615.6,76.7L615.6,76.7z"/></g>
</svg>